<?xml version="1.0" standalone="no"?>
<!DOCTYPE svg PUBLIC "-//W3C//DTD SVG 20010904//EN"
 "http://www.w3.org/TR/2001/REC-SVG-20010904/DTD/svg10.dtd">
<svg version="1.0" xmlns="http://www.w3.org/2000/svg"
 width="316.000000pt" height="323.000000pt" viewBox="0 0 316.000000 323.000000"
 preserveAspectRatio="xMidYMid meet">

<g transform="translate(0.000000,323.000000) scale(0.100000,-0.100000)"
fill="#000000" stroke="none">
<path d="M877 1590 l-707 -1410 465 0 465 0 0 29 c0 26 -4 29 -43 35 -101 15
-210 98 -237 181 -8 23 -10 64 -7 104 5 63 23 101 383 820 209 415 384 756
391 758 7 3 162 -296 393 -757 348 -695 381 -767 387 -824 4 -50 1 -71 -17
-114 -36 -83 -123 -149 -225 -168 -30 -5 -35 -10 -35 -35 l0 -29 455 0 c250 0
455 2 455 5 0 10 -1405 2815 -1410 2815 -3 0 -324 -634 -713 -1410z"/>
</g>
</svg>
